<svg width="40" height="40" viewBox="0 0 40 40" fill="none" xmlns="http://www.w3.org/2000/svg">
<path d="M20 0C16.0444 0 12.1776 1.17298 8.8886 3.37061C5.59962 5.56823 3.03617 8.69181 1.52242 12.3463C0.00866568 16.0008 -0.387401 20.0222 0.384303 23.9018C1.15601 27.7814 3.06082 31.3451 5.85787 34.1421C8.65492 36.9392 12.2186 38.844 16.0982 39.6157C19.9778 40.3874 23.9992 39.9913 27.6537 38.4776C31.3082 36.9638 34.4318 34.4004 36.6294 31.1114C38.827 27.8224 40 23.9556 40 20C40 17.3736 39.4827 14.7728 38.4776 12.3463C37.4725 9.91982 35.9993 7.71503 34.1421 5.85786C32.285 4.00069 30.0802 2.5275 27.6537 1.52241C25.2272 0.517315 22.6264 0 20 0ZM20 3.44C21.6477 3.43936 23.2864 3.68404 24.862 4.166L20 15.082L15.14 4.164C16.7151 3.68291 18.3531 3.43891 20 3.44ZM3.44001 20C3.43887 18.2877 3.70266 16.5856 4.22201 14.954L13.2 35.1C10.2918 33.7903 7.82367 31.6686 6.09228 28.9899C4.36089 26.3112 3.4399 23.1895 3.44001 20ZM20 36.56C18.3531 36.5611 16.7151 36.3171 15.14 35.836L20 24.916L24.862 35.834C23.2864 36.3159 21.6477 36.5606 20 36.56ZM22.422 20.52H17.58L14.33 27.822L6.54601 10.342C7.86629 8.50748 9.5473 6.9619 11.486 5.8L17.582 19.488H22.422L28.514 5.8C30.4526 6.96387 32.1329 8.51151 33.452 10.348L25.672 27.824L22.422 20.52ZM26.8 35.1L35.776 14.954C37.0107 18.8284 36.7785 23.0215 35.1235 26.7359C33.4686 30.4503 30.5063 33.427 26.8 35.1Z" fill="white"/>
</svg>
