<svg width="91" height="100" viewBox="0 0 91 100" fill="none" xmlns="http://www.w3.org/2000/svg">
<path fill-rule="evenodd" clip-rule="evenodd" d="M41.7556 0.638155C43.7413 -0.104809 45.911 -0.201668 47.955 0.361396L48.8205 0.638155L84.0445 13.8472C85.8305 14.5169 87.3894 15.6804 88.5396 17.202C89.6897 18.7237 90.3838 20.5409 90.5408 22.4418L90.5761 23.2721V50.2587C90.5759 58.4127 88.3742 66.4154 84.2036 73.422C80.0329 80.4286 74.0479 86.1793 66.8804 90.0669L65.5418 90.7664L48.6645 99.2051C47.7352 99.669 46.7202 99.9362 45.6829 99.9899C44.6456 100.044 43.6084 99.8826 42.6362 99.517L41.9116 99.2051L25.0342 90.7664C17.7409 87.1196 11.5674 81.5714 7.16559 74.7073C2.76374 67.8433 0.29679 59.9181 0.0251606 51.7683L0 50.2587V23.2721C2.92613e-05 21.3656 0.541578 19.4984 1.5616 17.8877C2.58162 16.2771 4.03816 14.9893 5.76164 14.1742L6.53154 13.8472L41.7556 0.638155ZM62.5629 33.0141L39.4257 56.1512L30.5292 47.2546C29.585 46.3111 28.3046 45.7813 26.9698 45.7818C25.6349 45.7822 24.3549 46.3129 23.4114 47.2572C22.4679 48.2014 21.938 49.4817 21.9385 50.8166C21.939 52.1514 22.4697 53.4314 23.4139 54.3749L35.5108 66.4719C36.0249 66.9861 36.6352 67.3941 37.3069 67.6724C37.9786 67.9507 38.6986 68.094 39.4257 68.094C40.1529 68.094 40.8728 67.9507 41.5446 67.6724C42.2163 67.3941 42.8266 66.9861 43.3406 66.4719L69.6782 40.1293C70.1588 39.6651 70.5421 39.1099 70.8058 38.496C71.0696 37.882 71.2084 37.2217 71.2142 36.5536C71.22 35.8854 71.0927 35.2228 70.8396 34.6044C70.5866 33.986 70.213 33.4242 69.7405 32.9517C69.268 32.4792 68.7062 32.1056 68.0878 31.8526C67.4694 31.5996 66.8068 31.4722 66.1386 31.478C65.4705 31.4839 64.8102 31.6227 64.1963 31.8864C63.5823 32.1501 63.0271 32.5335 62.5629 33.0141Z" fill="white"/>
</svg>
