<svg width="112" height="100" viewBox="0 0 112 100" fill="none" xmlns="http://www.w3.org/2000/svg">
<path d="M50 100V88.8889H94.4444V49.4444C94.4444 38.6111 90.6722 29.4222 83.1278 21.8778C75.5833 14.3333 66.3926 10.5593 55.5555 10.5556C44.7185 10.5519 35.5296 14.3259 27.9889 21.8778C20.4481 29.4296 16.6741 38.6185 16.6667 49.4444V83.3333H11.1111C8.05555 83.3333 5.44074 82.2463 3.26667 80.0722C1.09259 77.8981 0.0037037 75.2815 0 72.2222V61.1111C0 59.1667 0.487037 57.3389 1.46111 55.6278C2.43518 53.9167 3.8 52.55 5.55555 51.5278L5.97222 44.1667C6.71296 37.8704 8.54259 32.037 11.4611 26.6667C14.3796 21.2963 18.037 16.6204 22.4333 12.6389C26.8296 8.65741 31.8741 5.55555 37.5667 3.33333C43.2593 1.11111 49.2555 0 55.5555 0C61.8555 0 67.8278 1.11111 73.4722 3.33333C79.1167 5.55555 84.163 8.63518 88.6111 12.5722C93.0593 16.5093 96.7167 21.1611 99.5833 26.5278C102.45 31.8944 104.302 37.7278 105.139 44.0278L105.556 51.25C107.315 52.0833 108.681 53.3333 109.656 55C110.63 56.6667 111.115 58.4259 111.111 60.2778V73.0555C111.111 74.9074 110.626 76.6667 109.656 78.3333C108.685 80 107.319 81.25 105.556 82.0833V88.8889C105.556 91.9444 104.469 94.5611 102.294 96.7389C100.12 98.9167 97.5037 100.004 94.4444 100H50ZM38.8889 61.1111C37.3148 61.1111 35.9963 60.5778 34.9333 59.5111C33.8704 58.4444 33.337 57.1259 33.3333 55.5555C33.3296 53.9852 33.863 52.6667 34.9333 51.6C36.0037 50.5333 37.3222 50 38.8889 50C40.4556 50 41.7759 50.5333 42.85 51.6C43.9241 52.6667 44.4556 53.9852 44.4444 55.5555C44.4333 57.1259 43.9 58.4463 42.8444 59.5167C41.7889 60.587 40.4704 61.1185 38.8889 61.1111ZM72.2222 61.1111C70.6481 61.1111 69.3296 60.5778 68.2667 59.5111C67.2037 58.4444 66.6704 57.1259 66.6667 55.5555C66.663 53.9852 67.1963 52.6667 68.2667 51.6C69.337 50.5333 70.6555 50 72.2222 50C73.7889 50 75.1093 50.5333 76.1833 51.6C77.2574 52.6667 77.7889 53.9852 77.7778 55.5555C77.7667 57.1259 77.2333 58.4463 76.1778 59.5167C75.1222 60.587 73.8037 61.1185 72.2222 61.1111ZM22.3611 52.5C21.713 42.6852 24.6759 34.2593 31.25 27.2222C37.8241 20.1852 46.0185 16.6667 55.8333 16.6667C64.0741 16.6667 71.3204 19.2815 77.5722 24.5111C83.8241 29.7407 87.5963 36.4333 88.8889 44.5889C80.463 44.4926 72.7092 42.2222 65.6278 37.7778C58.5463 33.3333 53.1055 27.3148 49.3055 19.7222C47.8241 27.1296 44.7 33.7278 39.9333 39.5167C35.1667 45.3055 29.3093 49.6333 22.3611 52.5Z" fill="white"/>
</svg>
