<svg width="100" height="100" viewBox="0 0 100 100" fill="none" xmlns="http://www.w3.org/2000/svg">
<path d="M5.04748 0L0 5.04748L8.89171 20.4244L14.6581 19.5787L49.8558 54.7803L46.8535 57.6635C45.3158 59.2012 45.3158 61.5308 46.8535 63.0685L48.4143 64.6331C49.9519 66.1708 52.3046 66.1708 53.4579 64.6331L58.0248 69.1962C57.6404 71.5027 58.0248 74.2436 59.9469 76.1658L80.7289 96.8285C84.9575 101.057 91.8771 101.057 96.1058 96.8285C101.103 92.2154 101.057 85.3189 96.8285 81.0902L76.1658 60.3045C74.2436 58.3823 71.5027 57.6135 69.1962 58.3823L64.1487 53.8192C65.302 52.2815 65.302 49.9289 64.1487 48.7718L62.7071 47.334C62.3576 46.9696 61.9381 46.6796 61.4736 46.4815C61.0092 46.2834 60.5095 46.1813 60.0046 46.1813C59.4997 46.1813 59 46.2834 58.5356 46.4815C58.0711 46.6796 57.6516 46.9696 57.3021 47.334L54.7803 49.8558L19.5825 14.6581L20.4206 8.89171L5.04748 0ZM80.01 0.119171C72.4253 -0.511283 62.3688 4.51697 57.6635 8.88786C51.8741 14.6773 52.8197 22.2466 57.4213 29.5545L49.2561 37.7234L55.0225 44.2087C58.0979 41.5177 62.6341 41.5177 65.7095 44.2087L67.2741 45.7694L67.6354 46.1308L70.9991 42.7671C77.9495 46.8535 85.1843 47.4417 90.7008 41.9252C96.0827 36.9277 101.918 24.6031 99.2273 17.299L88.4173 28.4704C86.8796 30.0081 84.55 30.0081 83.0123 28.4704L71.8372 17.299C71.4727 16.9496 71.1827 16.53 70.9846 16.0656C70.7865 15.6012 70.6844 15.1015 70.6844 14.5965C70.6844 14.0916 70.7865 13.5919 70.9846 13.1275C71.1827 12.6631 71.4727 12.2435 71.8372 11.8941L83.0162 0.722716C82.0551 0.384423 81.0941 0.211433 80.01 0.119171ZM37.7234 48.0529L23.7843 61.9882C22.2864 61.6554 20.7555 61.4942 19.2212 61.5077C8.45731 61.5077 0 69.965 0 80.7289C0 91.4927 8.45731 99.95 19.2212 99.95C29.985 99.95 38.4423 91.4927 38.4423 80.7289C38.4423 78.7568 38.1309 76.8616 37.6004 75.0817L45.7694 66.9127L44.57 65.3519C41.4946 62.2766 41.5177 57.6173 44.2087 54.5381L37.7234 48.0529ZM67.5162 65.5941C67.9968 65.5941 68.4504 65.6864 68.8348 66.0747L91.5427 88.7787C92.3115 89.5475 92.3115 90.77 91.5427 91.5388C90.7738 92.3077 89.5437 92.3077 88.7748 91.5388L66.0747 68.8348C65.3058 68.066 65.3058 66.8435 66.0747 66.0747C66.4591 65.6902 67.0357 65.5941 67.5162 65.5941ZM21.866 70.7531L29.1931 78.084L26.5483 88.0521L16.5802 90.697L9.24922 83.366L11.8941 73.3979L21.866 70.7531Z" fill="white"/>
</svg>
