<svg width="82" height="100" viewBox="0 0 82 100" fill="none" xmlns="http://www.w3.org/2000/svg">
<path d="M72.3636 4.54545C71.4545 1.90909 68.9091 0 65.9091 0H15.9091C12.9091 0 10.4091 1.90909 9.45455 4.54545L0 31.8182V68.1818C0 70.6818 2.04545 72.7273 4.54545 72.7273H9.09091C11.5909 72.7273 13.6364 70.6818 13.6364 68.1818V63.6364H68.1818V68.1818C68.1818 70.6818 70.2273 72.7273 72.7273 72.7273H77.2727C79.7727 72.7273 81.8182 70.6818 81.8182 68.1818V31.8182L72.3636 4.54545ZM15.9091 50C12.1364 50 9.09091 46.9545 9.09091 43.1818C9.09091 39.4091 12.1364 36.3636 15.9091 36.3636C19.6818 36.3636 22.7273 39.4091 22.7273 43.1818C22.7273 46.9545 19.6818 50 15.9091 50ZM65.9091 50C62.1364 50 59.0909 46.9545 59.0909 43.1818C59.0909 39.4091 62.1364 36.3636 65.9091 36.3636C69.6818 36.3636 72.7273 39.4091 72.7273 43.1818C72.7273 46.9545 69.6818 50 65.9091 50ZM9.09091 27.2727L15.9091 6.81818H65.9091L72.7273 27.2727H9.09091ZM18.1818 86.3636H36.3636V77.2727L63.6364 90.9091H45.4545V100L18.1818 86.3636Z" fill="white"/>
</svg>
