<svg width="100" height="100" viewBox="0 0 100 100" fill="none" xmlns="http://www.w3.org/2000/svg">
<path fill-rule="evenodd" clip-rule="evenodd" d="M50 0C77.615 0 100 22.385 100 50C100 77.615 77.615 100 50 100C22.385 100 0 77.615 0 50C0 22.385 22.385 0 50 0ZM11.025 59.05C12.7748 66.5619 16.6564 73.4087 22.2036 78.7678C27.7507 84.1269 34.7273 87.7702 42.295 89.26C41.33 76.135 37.015 68.26 31.565 63.905C26.345 59.73 19.265 58.115 11.025 59.045V59.05ZM68.435 63.9C62.985 68.265 58.67 76.135 57.705 89.26C65.2734 87.7698 72.2504 84.1258 77.7976 78.7657C83.3448 73.4057 87.2261 66.5578 88.975 59.045C80.735 58.115 73.655 59.73 68.435 63.905V63.9ZM50 10C40.6809 10.0012 31.6544 13.2551 24.4779 19.2002C17.3015 25.1453 12.425 33.4088 10.69 42.565L10.475 43.805L21.525 41.595C24.435 41.015 27.2 39.48 30.29 37.395L32.675 35.735C36.66 32.905 42.565 30 50 30C56.94 30 62.545 32.53 66.5 35.17L69.71 37.395C72.41 39.22 74.87 40.62 77.39 41.335L78.475 41.595L89.525 43.805C88.0461 34.3846 83.2513 25.8022 76.0046 19.6042C68.7579 13.4062 59.5357 10.0002 50 10Z" fill="white"/>
<path d="M50 36C47.2311 36 44.5243 36.8211 42.222 38.3594C39.9197 39.8978 38.1253 42.0843 37.0657 44.6424C36.0061 47.2006 35.7288 50.0155 36.269 52.7313C36.8092 55.447 38.1426 57.9416 40.1005 59.8995C42.0584 61.8574 44.553 63.1908 47.2687 63.731C49.9845 64.2712 52.7994 63.9939 55.3576 62.9343C57.9157 61.8747 60.1022 60.0803 61.6406 57.778C63.1789 55.4757 64 52.7689 64 50C64 48.1615 63.6379 46.341 62.9343 44.6424C62.2307 42.9439 61.1995 41.4005 59.8995 40.1005C58.5995 38.8005 57.0561 37.7693 55.3576 37.0657C53.659 36.3621 51.8385 36 50 36ZM50 38.408C51.1534 38.4075 52.3004 38.5788 53.4034 38.9162L50 46.5574L46.598 38.9148C47.7006 38.578 48.8471 38.4072 50 38.408ZM38.408 50C38.4072 48.8014 38.5919 47.6099 38.9554 46.4678L45.24 60.57C43.2043 59.6532 41.4766 58.168 40.2646 56.2929C39.0526 54.4179 38.4079 52.2327 38.408 50ZM50 61.592C48.8471 61.5928 47.7006 61.422 46.598 61.0852L50 53.4412L53.4034 61.0838C52.3004 61.4212 51.1534 61.5924 50 61.592ZM51.6954 50.364H48.306L46.031 55.4754L40.5822 43.2394C41.5064 41.9552 42.6831 40.8733 44.0402 40.06L48.3074 49.6416H51.6954L55.9598 40.06C57.3168 40.8747 58.493 41.9581 59.4164 43.2436L53.9704 55.4768L51.6954 50.364ZM54.76 60.57L61.0432 46.4678C61.9075 49.1799 61.7449 52.115 60.5865 54.7151C59.428 57.3152 57.3544 59.3989 54.76 60.57Z" fill="black"/>
</svg>
